<svg width="240" height="64" viewBox="0 0 240 64" fill="none" xmlns="http://www.w3.org/2000/svg" role="img" aria-labelledby="pidtunerLogoTitle pidtunerLogoDesc">
  <title id="pidtunerLogoTitle">PIDtuner logo</title>
  <desc id="pidtunerLogoDesc">Control loop icon with response curve and PIDtuner wordmark</desc>
  <defs>
    <linearGradient id="loopGradient" x1="8" y1="8" x2="56" y2="56" gradientUnits="userSpaceOnUse">
      <stop stop-color="#06B6D4"/>
      <stop offset="1" stop-color="#0EA5E9"/>
    </linearGradient>
    <linearGradient id="curveGradient" x1="14" y1="42" x2="50" y2="22" gradientUnits="userSpaceOnUse">
      <stop stop-color="#F59E0B"/>
      <stop offset="1" stop-color="#F97316"/>
    </linearGradient>
  </defs>

  <g>
    <rect x="6" y="6" width="52" height="52" rx="16" fill="#0F172A"/>
    <rect x="8" y="8" width="48" height="48" rx="14" stroke="url(#loopGradient)" stroke-width="2.5"/>
    <path d="M15 41.5H23.5L29 27L34.5 34L40 22L49 22" stroke="url(#curveGradient)" stroke-width="3" stroke-linecap="round" stroke-linejoin="round"/>
    <circle cx="49" cy="22" r="2.8" fill="#F97316"/>
    <path d="M19 18.5C21.6 15.9 25 14.4 28.8 14.4C34.2 14.4 39 17.4 41.3 22" stroke="#22D3EE" stroke-opacity="0.55" stroke-width="1.8" stroke-linecap="round"/>
  </g>

  <g fill="#E2E8F0">
    <path d="M74 45V19H85.7C91.2 19 94.8 22.2 94.8 27.2C94.8 32.1 91.2 35.2 85.7 35.2H79.5V45H74ZM79.5 30.8H85C87.8 30.8 89.2 29.6 89.2 27.2C89.2 24.7 87.8 23.4 85 23.4H79.5V30.8Z"/>
    <path d="M99.2 45V19H104.7V45H99.2Z"/>
    <path d="M110.5 45V19H121C129.4 19 134.6 23.9 134.6 32C134.6 40.1 129.4 45 121 45H110.5ZM116 40.4H120.7C126 40.4 129 37.4 129 32C129 26.5 126 23.5 120.7 23.5H116V40.4Z"/>
  </g>

  <path d="M140.8 38.8H153.9" stroke="#64748B" stroke-width="2.1" stroke-linecap="round"/>
  <text x="157.5" y="42.8" fill="#94A3B8" font-family="'Segoe UI', 'Arial', sans-serif" font-size="15" font-weight="600" letter-spacing="0.6">tuner</text>
</svg>
